<?xml version="1.0" standalone="no"?>
<!DOCTYPE svg PUBLIC "-//W3C//DTD SVG 20010904//EN"
 "http://www.w3.org/TR/2001/REC-SVG-20010904/DTD/svg10.dtd">
<svg version="1.0" xmlns="http://www.w3.org/2000/svg"
 width="16.000000pt" height="16.000000pt" viewBox="0 0 16.000000 16.000000"
 preserveAspectRatio="xMidYMid meet">
<metadata>
Created by potrace 1.11, written by Peter Selinger 2001-2013
</metadata>
<g transform="translate(0.000000,16.000000) scale(0.008889,-0.008889)"
fill="#000000" stroke="none">
<path d="M290 1653 c-18 -65 -35 -124 -38 -132 -3 -9 -1 -12 6 -8 9 6 -22
-110 -49 -180 -13 -34 -12 -36 10 -30 19 5 19 4 0 -47 -40 -99 -59 -151 -59
-158 0 -5 9 -8 20 -8 11 0 20 -2 20 -4 0 -3 -20 -48 -45 -102 -25 -53 -45
-101 -45 -106 0 -5 13 -7 31 -3 l30 7 -55 -111 c-31 -61 -56 -112 -56 -114 0
-2 16 -1 35 1 19 2 35 2 35 -1 0 -2 -27 -53 -60 -111 l-59 -107 123 3 c68 2
127 1 130 -2 3 -3 8 -58 12 -121 l7 -116 -42 -24 c-50 -27 -50 -49 -1 -62 19
-5 38 -15 42 -22 6 -10 67 -12 285 -11 l278 2 125 37 c162 49 279 92 360 132
73 37 126 80 109 90 -25 16 -173 16 -299 1 -166 -20 -479 -70 -607 -96 -52
-11 -99 -20 -104 -20 -5 0 -9 43 -9 95 l0 95 37 0 c30 0 187 43 201 56 2 1
-21 45 -52 98 -31 52 -56 98 -56 101 0 3 16 3 36 -1 l35 -6 -50 101 c-28 55
-51 103 -51 105 0 3 11 6 24 8 l24 3 -44 100 c-24 55 -44 100 -44 102 0 1 9 3
19 5 18 3 17 10 -19 103 -28 76 -34 101 -24 103 17 4 19 -7 -12 87 -14 44 -28
98 -30 120 -4 43 -75 265 -84 265 -3 0 -21 -53 -40 -117z"/>
</g>
</svg>
